<?xml version="1.0" encoding="UTF-8"?>
<svg id="Layer_10" data-name="Layer 10" xmlns="http://www.w3.org/2000/svg" xmlns:xlink="http://www.w3.org/1999/xlink" viewBox="0 0 4498.49 3000">
  <defs>
    <style>
      .cls-1 {
        fill: none;
      }

      .cls-2 {
        fill: #fdbe74;
      }

      .cls-3 {
        fill: #d0bfa0;
      }

      .cls-4 {
        fill: #181e30;
      }

      .cls-5 {
        fill: #256548;
      }

      .cls-6 {
        fill: #8e8b7f;
      }

      .cls-7 {
        fill: #1a1e32;
      }

      .cls-8 {
        fill: #a1896d;
      }

      .cls-9 {
        fill: #191e2f;
      }

      .cls-10 {
        fill: #f6862d;
      }

      .cls-11 {
        fill: #d2c0a1;
      }

      .cls-12 {
        fill: #5f362a;
      }

      .cls-13 {
        clip-path: url(#clippath);
      }
    </style>
    <clipPath id="clippath">
      <rect class="cls-1" width="4498.49" height="3000"/>
    </clipPath>
  </defs>
  <g class="cls-13">
    <rect class="cls-2" x="-187.58" y="-146.88" width="4847.32" height="3314.84"/>
    <path class="cls-12" d="M3762.68,1635.51s-135.44,163.54-472.76,301.54c0,0-176.32,84.33-288.76,168.66l-391.47,325.86s36.93,3.54,89.26,6.75h.01c87.78,5.39,218.86,9.84,291.58-4.93,0,0,87.05-7.26,136.02-5.44l-3.63,21.76-286.54,29.02,56.22,27.2,3.62,23.58s-48.96-36.27-117.88-32.65c0,0-83.4.65-180.33,19.7-65.11,12.8-136.33,33.9-192.47,68.69-.01,0-.01.01-.02.01-.26.15-.52.31-.77.47,0,0-241.99,147.59-422.21,444.77h-674.71s236.63-214.78,87.37-549.69c0,0-4.14-9.89-12.54-28.44-24.56-54.24-85.48-182.56-185.48-354.57-65.97-113.48-148.96-245.97-249.74-388.75l13.94-17.81,332.81,383.12,13.55-239.93s45.51-416.7-432.35-1163.35l27.85,14.57s396.57,573.51,488.09,1037.19l207.77,424.12,161.35,329.36s42.7,103.72,118.97,36.61l314.2-195.23s14.2-2.71,39.51-10.92c54.56-17.72,160.73-61.05,287.38-158.11,45.62-34.96,93.91-76.9,143.39-127.13,205.72-208.79,432.23-560.79,574.98-1150.41,0,0,1.01-23.18,45.11-26.45,0,0,32.67,0,55.54,1.63,0,0,39.2,8.17,22.87,70.24,0,0-90.39,381.07-87.94,420.15,0,0,190.53-288.24,381.07-759.7l14.66,39.09s-176.53,554.07-614.45,1327.1h.02c1.05-.31,38.5-11.18,96.08-30.4h0c153.01-51.11,448.21-161.28,580.65-289.35l30.17,12.07Z"/>
    <path class="cls-12" d="M2830.5,2456.03s91.78-16.88,167.74-88.62l7.38,22.15s-43.86,43.76-106.55,66.46h-68.57Z"/>
    <path class="cls-12" d="M3280.97,1928.55s82.29,2.11,124.48,22.15l-15.82,15.82s-73.85-22.15-167.74-11.6l59.08-26.37Z"/>
    <path class="cls-12" d="M3417.06,1817.79s90.73-82.29,105.5-125.54l10.55,15.82-36.92,83.34-79.12,26.37Z"/>
    <path class="cls-12" d="M3602.73,1755.02s67.52-2.64,110.77,26.9l-17.93,10.55s-56.02-17.2-132.92-7.38l40.09-30.07Z"/>
    <path class="cls-12" d="M3431.83,1173.21s61.19-58.02,98.11-59.08v22.15s-60.13,28.48-121.32,98.11l23.21-61.19Z"/>
    <path class="cls-12" d="M3536.27,917.91s85.45-81.23,125.54-100.22v24.26s-85.45,66.46-139.25,128.7l13.71-52.75Z"/>
    <path class="cls-12" d="M3522.55,894.18s22.15-130.29,0-231.56h14.77s22.15,112.88,23.21,160.35l-37.98,71.21Z"/>
    <path class="cls-12" d="M3469.28,864.11s17.41,54.86,4.75,136.09l29.54-43.25s7.91-43.25-17.14-92.84h-17.14Z"/>
    <path class="cls-12" d="M900.93,837.43s93.53,38.76,118.09,54.9l64.22,122.23s-64.22-101.51-192.67-155.38l10.36-21.75Z"/>
    <path class="cls-12" d="M1055.27,946.2s-11.39-139.84,0-195.77l11.39,13.47s1.21,182.5,44.63,263.42l-56.02-81.11Z"/>
    <path class="cls-12" d="M995.19,1040.46s75.66-8.31,130.52,54.9l24.86,66.29s-80.8-96.33-155.38-104.62v-16.57Z"/>
    <path class="cls-12" d="M1171.28,1175.12s-9.32-105.66,0-130.52l15.54,8.29s9.32,133.62,46.61,230.99l-62.15-108.76Z"/>
    <path class="cls-12" d="M955.83,1803.87s77.69,22.79,107.73,43.51l55.94,84.94s-104.62-95.3-151.23-105.66l-12.43-22.79Z"/>
    <path class="cls-12" d="M1084.27,2005.86s64.22-4.14,91.15,5.18l30.04,49.72s-85.97-34.18-121.19-35.22v-19.68Z"/>
    <path class="cls-12" d="M1084.27,1862.91l-35.22-165.73h17.61s74.58,212.35,138.8,289l-121.19-123.26Z"/>
    <path class="cls-12" d="M1324.92,2454.38s71.71,26.89,122.51,90.64v36.85s-62.75-89.64-122.51-108.57v-18.92Z"/>
    <path class="cls-4" d="M2698.95,2438.32c-51.11,29.13-82.77,58.06-100.93,78.24-65.11,12.8-136.33,33.9-192.47,68.69,79.52-77.5,204.14-153.68,204.14-153.68,0,0,36.93,3.54,89.26,6.75Z"/>
    <path class="cls-4" d="M2153.09,2575.23c-15.61-.33-35.04,1.32-55.78,4.06-70.77,9.36-156.63,31.48-156.63,31.48-149.26,39.85-186.58-11.15-186.58-11.15-70.32-45.92-132.14-52.23-132.14-52.23h-.02c-38.34-7.31-73-17.14-103.85-28.13-59.79-21.28-105.26-46.91-135.42-66.89-24.56-54.24-85.48-182.56-185.48-354.57,22.23-29.65,109.66,20.69,109.66,20.69l292.26,28.47,161.35,329.36s42.7,103.72,118.97,36.61l314.2-195.23s14.2-2.71,39.51-10.92l66.34,179.46c35.88,38.75-146.39,88.99-146.39,88.99Z"/>
    <path class="cls-4" d="M2695.96,2181.04c-68.48-20.55-136.95-29-175.44-32.37,45.62-34.96,93.91-76.9,143.39-127.13l113.11,104.31c6.9,87.96-81.06,55.19-81.06,55.19Z"/>
    <path class="cls-4" d="M3151.85,1912.79c-30.73,21.7-92.01,68.46-138.84,126.45,0,0,13.19-43.51,42.74-96.05h.02c1.05-.31,38.5-11.18,96.08-30.4Z"/>
    <path class="cls-4" d="M1471.83,3049.62c-1.62,0-3.26-.34-4.82-1.06-5.77-2.67-8.28-9.5-5.61-15.26,31.24-67.57,52.22-139.25,62.34-213.06,8.11-59.12,9.32-119.74,3.6-180.18-7.81-82.51-27.61-148.26-36.99-171.5-2.38-5.89.47-12.59,6.35-14.97,5.89-2.38,12.59.46,14.97,6.34,1.15,2.84,28.3,70.86,38.48,177.08,5.97,62.3,4.77,124.8-3.55,185.78-10.41,76.26-32.05,150.33-64.33,220.14-1.94,4.2-6.1,6.68-10.45,6.68Z"/>
    <path class="cls-4" d="M1672.84,2728.65c-6.21,0-11.33-4.96-11.49-11.21-1.61-62.91-28.9-126.25-51.51-168.31-24.76-46.07-49.5-77.41-49.75-77.72-3.95-4.97-3.12-12.21,1.85-16.16,4.97-3.95,12.2-3.12,16.15,1.85,1.05,1.32,26.06,32.96,51.78,80.73,23.89,44.36,52.73,111.44,54.46,179.02.16,6.35-4.85,11.63-11.2,11.79-.1,0-.2,0-.3,0Z"/>
    <path class="cls-4" d="M1672.84,3062.59c-2.16,0-4.35-.61-6.29-1.88-5.31-3.48-6.8-10.61-3.32-15.92.62-.95,62.97-95.8,152.29-204.84,52.52-64.11,104-120.57,152.99-167.81,61.56-59.35,119.46-104.31,172.09-133.63,5.55-3.09,12.55-1.1,15.64,4.45,3.09,5.55,1.1,12.55-4.45,15.64-50.87,28.34-107.14,72.08-167.23,130.01-48.33,46.59-99.17,102.35-151.1,165.73-88.59,108.12-150.39,202.12-151,203.05-2.21,3.37-5.88,5.2-9.63,5.2Z"/>
    <path class="cls-4" d="M2412.07,2388.22c-3.6,0-7.15-1.69-9.39-4.85-3.67-5.18-2.45-12.36,2.73-16.03,71.09-50.41,181.75-131.93,195.22-149.9,3.81-5.08,11.02-6.11,16.1-2.3,5.08,3.81,6.11,11.02,2.3,16.1-19.96,26.61-181.92,141.81-200.32,154.86-2.02,1.43-4.34,2.12-6.64,2.12Z"/>
    <path class="cls-4" d="M1825.22,3049.62c-2.42,0-4.86-.76-6.94-2.34-5.06-3.84-6.05-11.05-2.21-16.11.7-.93,71.41-93.76,175.09-200.22,60.95-62.58,121.25-117.61,179.23-163.57,72.76-57.68,142.12-101.2,206.16-129.35,5.81-2.56,12.6.08,15.16,5.9,2.56,5.81-.08,12.6-5.9,15.16-62.2,27.35-129.83,69.81-201,126.22-57.18,45.32-116.72,99.65-176.96,161.49-102.75,105.47-172.76,197.37-173.45,198.29-2.26,2.98-5.7,4.55-9.17,4.55Z"/>
    <path class="cls-4" d="M2940.52,1791.67c-2.2,0-4.43-.63-6.39-1.95-5.28-3.54-6.69-10.68-3.15-15.96,1.97-2.94,197.56-295.77,254.75-470.53,1.98-6.04,8.47-9.33,14.51-7.35,6.04,1.98,9.33,8.47,7.35,14.51-24.46,74.74-75.26,177.64-150.98,305.82-56.25,95.23-106.03,169.62-106.53,170.36-2.22,3.31-5.86,5.1-9.56,5.1Z"/>
    <path class="cls-4" d="M3092.09,1694.4c-2.13,0-4.28-.59-6.2-1.82-5.34-3.43-6.9-10.55-3.46-15.89l79.09-123.2c3.43-5.34,10.55-6.9,15.89-3.46,5.34,3.43,6.9,10.55,3.46,15.89l-79.09,123.2c-2.2,3.42-5.9,5.29-9.69,5.29Z"/>
    <path class="cls-4" d="M3212.88,1227.53c-1.01,0-2.03-.13-3.04-.41-6.13-1.68-9.73-8-8.05-14.13l74.57-272.34c1.68-6.13,8.01-9.73,14.13-8.05,6.13,1.68,9.73,8,8.05,14.13l-74.57,272.34c-1.4,5.11-6.03,8.47-11.08,8.47Z"/>
    <path class="cls-6" d="M3169.08,760.49s-15.58,48.67-60.35,7.79c0,0-11.68,218.03-101.23,120.7,0,0-17.52,124.58-138.21,87.6,0,0,1.94,225.81-163.53,319.25,0,0,19.59,95.56,69.47,168.48,0,0,21.75,51.17,101.06,58.84,0,0,73.25.79,114.66,35.58l-24.02,45.42-1.21,1.82-4.23,6.39s43.61,15.52,59.76,58.32c0,0,27.46,50.88-29.88,41.19,0,0-32.3-4.85-65.41-19.38,0,0-3.08,2.25-8.56,6.06-24.94,17.36-99.51,67.17-157.79,84.38,0,0-75.11,24.23-167.17-2.42l-23.42,26.65s49.47,34.51,93.18,54.06c0,0,28.75,13.81,62.11,16.11,0,0,77.07,3.45,139.19,72.46,0,0,68.58,60.28,17.1,103.78-2.68,2.27-5.69,4.49-9.05,6.65,0,0-.22,11.89-4.86,25.18-4.26,12.15-12.23,25.47-27.14,31.92-6.38,2.76-14.03,4.26-23.21,3.87,0,0-.44.92-1.33,2.42-4.27,7.22-18.78,27.84-43.54,24.03,0,0-26.45-40.26-94.32-70.16,0,0-37.02-17.99-74.87,3.08,0,0-51.66-11.14-98.82-7.69,0,0,2.45,55.33,17.06,75.8,0,0-56.97,45.85-156.78,100.39-8.68,4.74-17.68,9.55-27,14.39h-.01c-2.82,1.48-5.66,2.95-8.54,4.42-3.02,1.55-6.07,3.1-9.15,4.65,0,0,82.65,30.08,80.54,67.11-.55,9.93-7.22,20.37-23.21,30.86-.84.56-1.71,1.11-2.6,1.66,0,0,7.02,19.08,8.17,38.07h0c1.27,20.99-4.63,41.83-35.06,36.64h-.01c-1.32-.22-2.69-.49-4.11-.82,0,0-.86,11.8-6.63,24.16-6.14,13.13-17.81,26.89-39.89,27.83,0,0-99.43-50.17-248.12,5.48l-120.41,42.87s-31.93,16.42-62.03-3.65l-40.72-29.1s-26.78,0-68.56-5.06c-128.33-15.54-398.16-78.82-468.09-336.45,0,0-80.5-273.2,114.64-580.56,0,0,178.65-249.72,363.78-415.05,23.49-20.98,47.08-40.6,70.43-58.18,0,0-31.71-97.57-26.84-180.51,0,0-92.69,73.18-146.36-65.86,0,0-81.75,76.87-98.29-133.08,0,0-129.15,70.28-27.92-175,0,0-101.23,33.09,0-124.59,0,0,44.78-50.61,103.18-66.19,0,0-36.99-93.44,169.36-97.33,0,0,198.56-27.25,290.05,186.88,0,0,270.59-87.6,480.84,11.68,0,0,103.17-260.85,381.55-177.15,0,0,95.38,40.88,62.29,83.71,0,0,132.38,38.93,146,167.42,0,0-1.94,56.44-40.87,19.47.82,1.21,64.06,94.08,38.93,192.71Z"/>
    <path class="cls-3" d="M2145.24,1360.95s126.43,334.43,422.11,446.58c0,0,205.76-179.71,138.66-511.84,0,0-224.31,177.41-560.78,65.25Z"/>
    <path class="cls-8" d="M2375.67,2134.82l-11.93,114.24c-14.06,7.68-28.98,15.54-44.7,23.46-75.45,6.12-210.51,52.96-210.51,52.96,50.98-93.8-28.55-381.32-28.55-381.32l295.69,190.66Z"/>
    <path class="cls-11" d="M2202.06,1070.13s170.12,9.45,231.03-7.35c0,0,45.16-6.3,47.26,50.41,0,0,15.75,195.33-149.12,202.68,0,0-166.97,9.45-171.17-202.68,0,0-8.38-44.99,42.01-43.06Z"/>
    <path class="cls-11" d="M1823.35,863.97s34.88-114.39,71.15-177.17c0,0-100.44-69.75-94.86-89.28,0,0,11.16-23.72,104.63,64.17l73.94-124.16-40.46-68.36s-160.43-129.74-279.01,25.11c0,0-55.8,89.28,0,122.76,0,0-75.33,206.47,164.62,246.92Z"/>
    <path class="cls-11" d="M2718.97,557.06l37.67,82.31s76.73-61.38,101.84-41.15c0,0,12.56,10.46-89.28,62.08,0,0,75.33,156.25,83.7,210.65,0,0,143.69,44.64,142.29-132.53,0,0,117.18-12.56,83.7-152.06,0,0-34.88-170.2-227.39-132.53,0,0-119.97,50.22-132.53,103.23Z"/>
    <path class="cls-7" d="M2070.87,1332.1c-49.92,7.47-186.99,9.79-304.14-155.59,23.49-20.98,47.08-40.6,70.43-58.18,0,0,24.61,103.77,235.42,201.72,5.72,2.66,4.52,11.12-1.71,12.05Z"/>
    <circle class="cls-9" cx="2110.62" cy="862.39" r="45.37"/>
    <circle class="cls-9" cx="2551.17" cy="872.91" r="45.37"/>
    <circle class="cls-10" cx="2009.91" cy="1027.8" r="75.33"/>
    <circle class="cls-10" cx="2652.99" cy="1043" r="75.33"/>
    <path class="cls-9" d="M2217.8,1064.25s-32.88-206.47,56.55-281.43c0,0,26.3-28.93,84.17-9.21,0,0,69.7,26.3,69.7,120.99l-5.26,156.5s-5.26,76.28-97.32,76.28c0,0-80.22,9.21-107.84-63.12Z"/>
    <path class="cls-9" d="M2520.52,2148.67s-56.97,45.85-156.78,100.39c-8.68,4.74-17.68,9.55-27,14.39l18.11-90.34s4.5-20.25-24.75-38.25l-220.02-163.54-10.03-7.45v-14.29s3.67,2.96,10.79,7.97c38.99,27.43,181.54,116.17,392.62,115.32,0,0,2.45,55.33,17.06,75.8Z"/>
    <path class="cls-9" d="M1589.39,1855.3c58.75-38.03,189.71-106.15,304.44-48.26,0,0,265.28,153.99,170.36,550.69,0,0,63.46-32.95,75.54-103.23,0,0,33.51-158.95-39.68-276.03l-70.06-74.94-132.7-118.91s-162.01-98.25-313.98,63.36c-3.88,4.12,1.33,10.4,6.08,7.32Z"/>
    <path class="cls-9" d="M2100.04,1976.37c-2.59,0-5.21-.8-7.45-2.47-120.26-89.39-188.68-172.31-224.91-226.14-39.77-59.09-50.67-96.85-51.12-98.43-1.87-6.65,2-13.55,8.64-15.42,6.64-1.87,13.54,1.99,15.42,8.62,3.56,12.41,18.31,47.71,48.71,92.62,35.13,51.89,101.49,131.96,218.17,218.68,5.54,4.12,6.69,11.95,2.58,17.49-2.45,3.3-6.22,5.04-10.04,5.04Z"/>
    <path class="cls-9" d="M2064.2,2370.23c-3.9,0-7.74-1.82-10.18-5.23-4.01-5.62-2.71-13.42,2.9-17.43,2.41-1.72,59.74-42.4,130.86-67.01,97.48-33.73,173-20.09,218.4,39.45,4.19,5.49,3.13,13.33-2.36,17.52-5.49,4.19-13.33,3.13-17.52-2.36-21.09-27.66-50.04-43.46-86.06-46.98-29.91-2.93-64.85,2.41-103.83,15.84-67.79,23.37-124.39,63.48-124.95,63.88-2.2,1.57-4.74,2.33-7.25,2.33Z"/>
    <path class="cls-9" d="M2381.94,2410.22c-29.82-35.21-74.14-53.68-131.86-54.93-46.53-1-84.58,10.14-84.96,10.26-6.62,1.97-13.58-1.8-15.55-8.41-1.97-6.61,1.78-13.57,8.39-15.55,1.67-.5,41.63-12.28,91.94-11.31,50.73.98,93.69,14.75,126.47,40.21-.84.56-1.71,1.11-2.6,1.66,0,0,7.02,19.08,8.17,38.07Z"/>
    <path class="cls-9" d="M2346.87,2446.86c-1.32-.22-2.69-.49-4.11-.82,0,0-.86,11.8-6.63,24.16-67.31-54.09-192.84-54.68-196.26-54.68h-.12c-6.87,0-12.47-5.56-12.5-12.44-.03-6.9,5.53-12.52,12.44-12.56,1.7,0,42.71-.1,92.12,9.89,48.28,9.76,86.8,25.33,115.06,46.45Z"/>
    <path class="cls-9" d="M2839.55,2117.32c-6.38,2.76-14.03,4.26-23.21,3.87,0,0-.44.92-1.33,2.42-13.36-29.24-39.53-54.99-61.42-72.88-30.84-25.22-60.42-40.91-60.71-41.06-6.11-3.22-8.45-10.78-5.24-16.88,3.21-6.11,10.77-8.46,16.88-5.25,4.65,2.45,103.87,55.36,135.03,129.78Z"/>
    <path class="cls-9" d="M2880.6,2053.57c-2.68,2.27-5.69,4.49-9.05,6.65,0,0-.22,11.89-4.86,25.18-26.76-81.59-119.29-132.74-120.25-133.26-6.06-3.3-8.31-10.89-5.02-16.95,3.3-6.06,10.87-8.31,16.94-5.02,1.11.6,27.5,15.02,57.26,41.26,28.89,25.47,50.92,53.4,64.98,82.14Z"/>
    <path class="cls-9" d="M2555.87,1817.41c-1.67,0-3.36-.34-4.99-1.05-2.86-1.25-70.91-31.27-154.74-97.22-49.2-38.71-93.54-81.8-131.81-128.08-47.91-57.94-86.37-121.07-114.31-187.62-2.67-6.37.32-13.69,6.69-16.36,6.36-2.67,13.69.32,16.36,6.69,26.93,64.15,64.02,125.04,110.21,180.99,37.05,44.86,80.01,86.67,127.7,124.26,65.13,51.34,126.53,84.23,149.9,94.45,6.32,2.76,9.21,10.13,6.45,16.46-2.05,4.7-6.64,7.5-11.46,7.5Z"/>
    <path class="cls-9" d="M3031.37,1647.35c-16.88-23.23-45.92-35.44-65.65-41.38-11.53-3.47-19.89-4.8-20.78-4.93-6.82-1.04-13.18,3.64-14.23,10.45-1.05,6.82,3.62,13.2,10.44,14.26.49.08,49.5,8,70.04,36.35,7.59,10.48,10.21,22.33,8,36.21-.22.71-1.24,3.16-5.16,4.78-6.92,2.87-29.39,5.82-88.25-28.57-5.96-3.48-13.61-1.48-17.1,4.48-3.48,5.97-1.47,13.62,4.49,17.1,1.42.83,2.83,1.65,4.23,2.45,36.5,20.87,65.15,31.21,86.69,31.2,8.12,0,15.23-1.46,21.37-4.39,15.24-7.26,18.01-20.66,18.35-22.7,3.39-20.67-.8-39.28-12.44-55.31ZM3019.12,1698.59s.01.02.01.08c0,.01,0,.02-.01.03v.02s0,.02,0,.03c0-.04,0-.16,0-.16Z"/>
    <path class="cls-9" d="M2317.65,1196.99c-12.49,0-25.64-1.69-39.34-5.09-35.94-8.93-63-26.48-64.13-27.23-5.77-3.78-7.39-11.53-3.6-17.31,3.78-5.77,11.52-7.39,17.29-3.61h0c.25.16,25.13,16.23,57.08,24.04,40.61,9.92,73.4,2.43,97.47-22.29,4.82-4.95,12.73-5.05,17.68-.24,4.95,4.82,5.05,12.73.24,17.68-21.97,22.57-50.11,34.06-82.68,34.06Z"/>
    <path class="cls-9" d="M1824.96,2513.63s-26.78,0-68.56-5.06c-21.89-35.69-90.21-159.12-73.25-284.71.41-3.02,4.85-2.84,5.02.2,3.26,56.4,23.13,195.9,136.78,289.57Z"/>
    <path class="cls-9" d="M2683.19,529.36s69.95,101.17,73.7,111.17c0,0-94.93-199.85,159.88-263.55,0,0-153.64-18.74-233.58,152.39Z"/>
    <path class="cls-9" d="M1776.36,365.73s233.58,91.18,174.87,239.82l42.47-74.94s-69.95-158.63-217.34-164.88Z"/>
    <path class="cls-5" d="M1334.39,2458.03s-213.21-202.66-483.31,53.84c0,0-56.87,46.07,3.9,49.27,0,0,223.07,26.6,329.96-80.29,0,0-204.95,224.56-135.33,293.21,0,0,17.65,11.77,56.88-19.61,0,0,185.34-138.27,202.01-269.67,0,0,7.01-15.6,25.89-8.73,0,0,8.15-11.04,0-18.01Z"/>
    <path class="cls-5" d="M905.93,2078.03s-209.06,233.79-141.15,303.98c0,0,27.96,4.94,69.24-25.68,0,0,182.28-140.26,256.01-330.83l8.25-.58s6.62-12.68-2.21-20.96c0,0-276.09-174.21-515.25,111.07,0,0-12.74,16.25-7.2,30.1,0,0,4.99,6.65,25.48,7.76,0,0,162.58,27.94,306.83-74.87Z"/>
    <path class="cls-5" d="M454.48,1799.32c45.02,27.57,221.73,116.79,508.18,28.66l18.99,4.77s10.21-17.02-14.98-35.41c0,0-202.46-205.87-512.23-12.81-5.49,3.42-5.48,11.42.04,14.8Z"/>
    <path class="cls-5" d="M4178.75,1947.81c-51.91,9.63-248.85,29.67-484.75-155.19l-19.44-2.35s-3.44-19.55,26.66-27.7c0,0,262.75-119.73,482.86,171.43,3.9,5.16,1.03,12.62-5.33,13.8Z"/>
    <path class="cls-5" d="M4107.42,618.78c-30.15,43.33-156.14,196.02-453.87,230.36l-15.48,11.99s-16.19-11.49-.5-38.44c0,0,102.72-269.85,463.95-217.48,6.4.93,9.6,8.26,5.91,13.56Z"/>
    <path class="cls-5" d="M3974.14,908.78c-30.15,43.33-150.83,195.39-448.56,229.73l-20.79,12.62s-16.19-11.49-.5-38.44c0,0,102.72-269.85,463.95-217.48,6.4.93,9.6,8.26,5.91,13.56Z"/>
    <path class="cls-5" d="M3233.93,422.18c-1.71,52.76,8.1,250.48,226.34,455.89l15.17,16.11s9.93,3.22,13.45-27.77c0,0,78.84-277.77-242.12-451.58-5.69-3.08-12.63.88-12.84,7.35Z"/>
    <path class="cls-5" d="M3387.87,195.58c-11.61,51.5-39.21,247.52,136.44,490.35l7.46,19.42s13.54,4.29,22.84-25.48c0,0,129.74-257.95-152.75-489.09-5.01-4.1-12.57-1.51-14,4.8Z"/>
    <path class="cls-5" d="M3861.67,2158.14c-52.47,5.79-250.35,11.3-472.03-190.39l-19.22-3.77s-2-19.75,28.63-25.66c0,0,270.84-100.1,468.96,206.46,3.51,5.43.1,12.66-6.33,13.37Z"/>
    <path class="cls-5" d="M3309.39,2795.58c-52.65-3.83-248.25-34.32-429.65-272.89l-18.21-11.52s1.62-15.47,32.81-15.72c0,0,284.51-49.29,423.7,288.13,2.47,5.98-2.2,12.47-8.65,12Z"/>
    <path class="cls-5" d="M604.68,1390.48c11.64,61.03,70.57,256.13,353.23,322.78l16.18-11.34s24.25-255.73-354.23-326.74c-9.03-1.69-16.9,6.27-15.18,15.3Z"/>
    <path class="cls-5" d="M1053.52,1723.55s-186.56-196.54-69.83-509.21c0,0,13.99-15.63,38.56,20.1,0,0,189.9,236.78,60.21,478.81,0,0-4.21.64-2.96,13.13,0,0-6.24,11.24-18.73,5.62l-7.25-8.45Z"/>
    <path class="cls-5" d="M1056.73,784.46s-179.87-278.58,79.44-536.97c7.88-7.85,21.27-4.84,25.06,5.62,26.74,73.76,95.55,323.61-104.5,531.35Z"/>
    <path class="cls-5" d="M1175.52,1074.58s-117.99-264.92,188.85-451.92c5.72-3.49,13.13.26,13.67,6.94,4.94,60.46,9.8,300.13-202.53,444.98Z"/>
    <path class="cls-5" d="M3525.75,1718.66s-117.99-264.92,188.85-451.92c5.72-3.49,13.13.26,13.67,6.94,4.94,60.46,9.8,300.13-202.53,444.98Z"/>
    <path class="cls-5" d="M3692.13,1674.1s34.74-287.92,394.07-290.88c6.7-.06,11.13,6.97,8.17,12.97-26.8,54.42-145.66,262.59-402.24,277.91Z"/>
    <path class="cls-5" d="M2967.22,2404.91s34.74-287.92,394.07-290.88c6.7-.06,11.13,6.97,8.17,12.97-26.8,54.42-145.66,262.59-402.24,277.91Z"/>
    <path class="cls-5" d="M907.56,717.88s65.37-282.54-271.47-407.68c-6.28-2.33-12.84,2.76-12.1,9.42,6.67,60.3,47.54,296.5,283.57,398.26Z"/>
    <path class="cls-5" d="M918.46,871.38s-117.02-265.35-461.66-163.63c-6.42,1.9-8.62,9.9-4.04,14.79,41.48,44.27,215.77,208.84,465.7,148.84Z"/>
    <path class="cls-5" d="M1317.16,1500s-62.76-260.51,171.4-467.48c2.97-2.62,7.67-.92,8.25,3,8.05,53.99,39.08,339.07-179.65,464.48Z"/>
    <path class="cls-5" d="M995.99,1031.26s-211.11-171.42-455.54,116.42c0,0-29.18,31.04,21.36,28.43,0,0,52.29,1.18,88.89.16,0,0,220.45-21.48,333.6-116.9l27.98,2.55v-22.62s-10.99.89-16.29-8.04Z"/>
    <path class="cls-5" d="M3632.13,634.03s6.63-8.15,8.87-35.55c0,0-5.84-305.32,279.02-432.68,7.22-3.23,15.49,1.52,16.26,9.39,6.11,62.15,11,297.15-236.9,450.77-7.78,4.82-16.47,7.88-25.45,9.64-4.93.96-10.69,4.06-14.03,12.59l-27.77-14.15Z"/>
    <path class="cls-5" d="M3090.13,2438.08s134.84-121.15,290.61-64.9c0,0,89,34.36,121.82,64.9,0,0,17.1,9.34,36.24,14.81,0,0,43.08,20.51-6.84,38.98,0,0-295.7,116.38-441.84-53.79Z"/>
  </g>
</svg>